HIERARCHY
ROOT Hips
{
  OFFSET 196.326 95.9168 97.7182
  CHANNELS 6 Xposition Yposition Zposition Zrotation Xrotation Yrotation
  JOINT LeftUpLeg
  {
    OFFSET 8.64259 1.95398 -2.38835
    CHANNELS 3 Zrotation Xrotation Yrotation
    JOINT LeftLeg
    {
      OFFSET 43.7702 0 0
      CHANNELS 3 Zrotation Xrotation Yrotation
      JOINT LeftFoot
      {
        OFFSET 40.6238 0 0
        CHANNELS 3 Zrotation Xrotation Yrotation
        JOINT LeftToeBase
        {
          OFFSET 12.7242 0 0
          CHANNELS 3 Zrotation Xrotation Yrotation
          End Site
          {
            OFFSET 0 0 0
          }
        }
      }
    }
  }
  JOINT RightUpLeg
  {
    OFFSET -8.2249 1.95398 -2.59336
    CHANNELS 3 Zrotation Xrotation Yrotation
    JOINT RightLeg
    {
      OFFSET 43.5653 0 0
      CHANNELS 3 Zrotation Xrotation Yrotation
      JOINT RightFoot
      {
        OFFSET 40.6238 0 0
        CHANNELS 3 Zrotation Xrotation Yrotation
        JOINT RightToeBase
        {
          OFFSET 12.7242 0 0
          CHANNELS 3 Zrotation Xrotation Yrotation
          End Site
          {
            OFFSET 0 0 0
          }
        }
      }
    }
  }
  JOINT Spine
  {
    OFFSET 0.165834 0.87714 6.61349
    CHANNELS 3 Zrotation Xrotation Yrotation
    JOINT Spine1
    {
      OFFSET 7.38963 1.71661e-005 0
      CHANNELS 3 Zrotation Xrotation Yrotation
      JOINT Spine2
      {
        OFFSET 11.9445 1.14441e-005 0
        CHANNELS 3 Zrotation Xrotation Yrotation
        JOINT Spine3
        {
          OFFSET 14.7254 4.19617e-005 0
          CHANNELS 3 Zrotation Xrotation Yrotation
          JOINT Spine4
          {
            OFFSET 10.9679 0 0
            CHANNELS 3 Zrotation Xrotation Yrotation
            JOINT RightShoulder
            {
              OFFSET 2.46616 -1.6653 3.69651
              CHANNELS 3 Zrotation Xrotation Yrotation
              JOINT RightArm
              {
                OFFSET 13.0012 0 0
                CHANNELS 3 Zrotation Xrotation Yrotation
                JOINT RightForeArm
                {
                  OFFSET 28.7848 1.52588e-005 0
                  CHANNELS 3 Zrotation Xrotation Yrotation
                  JOINT RightHand
                  {
                    OFFSET 26.5688 1.52588e-005 0
                    CHANNELS 3 Zrotation Xrotation Yrotation
                    End Site
                    {
                      OFFSET 0 0 0
                    }
                  }
                }
              }
            }
            JOINT LeftShoulder
            {
              OFFSET 2.38034 -1.29275 -3.75231
              CHANNELS 3 Zrotation Xrotation Yrotation
              JOINT LeftArm
              {
                OFFSET 16.3182 6.10351e-005 0
                CHANNELS 3 Zrotation Xrotation Yrotation
                JOINT LeftForeArm
                {
                  OFFSET 27.0901 0 0
                  CHANNELS 3 Zrotation Xrotation Yrotation
                  JOINT LeftHand
                  {
                    OFFSET 24.5451 1.52588e-005 0
                    CHANNELS 3 Zrotation Xrotation Yrotation
                    End Site
                    {
                      OFFSET 0 0 0
                    }
                  }
                }
              }
            }
            JOINT Neck
            {
              OFFSET 5.0226 -0.0266342 0
              CHANNELS 3 Zrotation Xrotation Yrotation
              JOINT Head
              {
                OFFSET 6.69363 2.86102e-005 0
                CHANNELS 3 Zrotation Xrotation Yrotation
                End Site
                {
                  OFFSET 0 0 0
                }
              }
            }
          }
        }
      }
    }
  }
}
MOTION
Frames:	17
Frame Time:	0.0416667
-139.051 88.5642 -125.934 92.1569 -54.4136 87.5329 -172.653 33.0594 84.335 -39.9315 21.0264 -3.14217 58.8189 5.62869 17.7883 39.214 9.09515 -36.7477 178.918 12.194 86.1323 -77.7235 10.1564 -6.29669 33.4003 1.72689 2.53553 26.3951 -1.23767 12.4482 0.546701 7.04406 -88.7258 12.7594 1.69501 2.3442 1.08755 1.7965 2.26735 -21.4337 0.912408 2.74496 -1.42104 0.912447 2.74497 77.6923 -50.1613 -119.215 30.6405 -16.9062 12.9819 -9.18143 -18.8654 -42.914 0.433007 -0.103752 5.48055 -103.377 -42.7185 55.9273 -27.3637 0.374496 4.73034 1.97378 -3.80707 -35.8469 12.6512 0.724214 1.91457 18.2928 -2.97264 -4.29378 -6.67695 -1.59699 0.549957 
-132.508 92.0806 -120.258 91.6466 -56.3312 91.2744 -173.066 26.646 88.1765 -37.5739 22.2339 -2.37772 57.6714 4.32528 17.2005 47.5944 14.8018 -30.45 -179.852 27.4953 92.3239 -90.9985 14.0547 -5.96322 35.6885 -0.217795 0.531335 27.7922 -1.10912 14.4995 0.312738 7.04661 -89.2419 12.7727 0.983725 1.39822 1.10141 1.04432 1.35355 -21.4288 0.518092 1.62916 -1.41612 0.518091 1.62917 77.1917 -50.3271 -119.872 31.2468 -17.8257 18.7404 -13.7619 -24.228 -44.3343 2.89084 -0.053509 5.44966 -101.917 -41.864 57.7731 -26.1505 -3.01874 1.47268 8.81916 1.3914 -55.1859 18.0098 1.88806 6.60355 17.8699 -0.734567 -3.98095 -5.7568 0.464766 0.489854 
-126.472 97.0305 -115.445 98.8057 -55.2811 99.8076 -175.103 15.5091 90.4098 -30.6388 22.2661 0.0357603 46.9375 -5.90946 8.114 53.4143 18.9236 -28.982 174.246 35.6763 96.9634 -96.7979 19.6919 -5.16604 45.0518 -2.85329 -1.82689 32.5762 -0.192761 14.8944 -0.0619721 7.59233 -89.6576 11.6886 0.0375454 0.680396 0.0174701 0.0674481 0.678082 -22.5161 -0.168687 0.660232 -2.5035 -0.168669 0.660226 77.0932 -49.9852 -120.166 31.8124 -15.8736 24.7071 -11.7218 -22.1926 -42.8716 -2.88618 -0.42588 4.2919 -100.134 -40.5066 59.9518 -25.3677 -5.11511 1.5127 10.6294 0.313415 -72.4476 24.0758 2.5142 6.65305 14.458 1.20254 -3.23042 -2.8567 2.08901 1.91091 
-121.026 101.201 -110.057 100.697 -50.2052 103.199 -176.553 12.1628 92.1519 -30.5545 22.3648 1.35567 38.2548 -11.6455 -1.07254 34.5819 6.45462 -11.9991 166.536 41.628 101.672 -98.0708 12.8539 -3.77219 48.3213 -1.65659 -0.904756 37.3766 0.750471 17.8127 -0.559541 7.82663 -89.9422 11.2214 -1.08673 0.223005 -0.449085 -1.07586 0.270614 -22.9878 -1.10351 -0.113949 -2.97518 -1.10352 -0.113959 78.1849 -49.8163 -118.642 33.0681 -11.5031 31.7169 -9.42979 -16.0716 -43.5172 -3.02482 -0.358531 2.33934 -97.287 -37.3328 63.1962 -24.7293 -2.89219 -0.020805 12.3307 -2.95337 -83.8542 26.0604 2.89794 7.40741 8.24052 1.36678 -3.49529 1.64769 2.27521 2.74606 
-115.776 103.719 -104.807 102.415 -47.6616 105.332 -175.11 10.6939 92.9174 -26.6751 20.9326 0.850964 41.2047 -9.33944 0.814622 37.628 9.22641 -11.9074 165.603 45.1625 103.765 -95.0859 6.24123 -3.10352 49.6922 -0.547576 -0.123548 40.6383 1.51188 19.2912 -0.666383 7.91666 -90.0876 11.0408 -1.36722 -0.0430197 -0.62939 -1.36777 0.0172023 -23.1699 -1.29106 -0.452005 -3.15723 -1.29106 -0.452002 80.5009 -47.3992 -116.196 35.8385 -6.85044 38.7623 -7.56021 -10.7707 -44.67 -1.03692 -0.207595 -0.00661279 -94.3125 -33.877 66.8638 -23.8046 -1.12314 -2.80249 16.1323 -1.51266 -93.4835 16.7658 1.76657 6.56302 3.69332 0.784407 -4.38785 4.749 1.85189 3.20749 
-110.633 104.306 -99.0696 103.04 -45.1608 105.602 -172.855 6.05449 92.9857 -8.47046 18.5316 -0.245735 39.4309 -10.0881 -0.419503 48.8356 19.4662 -10.67 166.924 46.0108 103.362 -89.5183 6.03106 -2.43477 55.215 -1.60801 -0.918932 33.3585 -0.00506292 12.6064 -0.788647 7.9871 -90.0141 10.9014 -1.57661 0.120461 -0.768638 -1.56979 0.189743 -23.3112 -1.53993 -0.359067 -3.29857 -1.53994 -0.359069 80.7959 -47.3181 -115.78 35.9334 -4.35513 43.5058 -7.39897 -9.60529 -44.2362 -0.290399 -0.155558 1.05198 -93.2277 -31.8148 67.9753 -18.8061 -0.963493 -5.81396 14.5646 -5.39405 -100.818 14.4829 1.41362 5.75618 1.91845 -0.113769 -6.21057 5.18511 1.18776 3.133 
-104.95 102.267 -93.2505 101.623 -41.9142 105.017 -172.798 10.0079 93.0655 -7.30159 13.782 -0.420495 43.1408 -9.22179 2.38425 48.6612 20.0897 -7.2813 168.259 45.6693 101.208 -80.9459 8.9364 -1.06889 57.7515 -2.22517 -1.29578 40.4032 1.24034 13.2701 -1.03388 7.89172 -90.0771 11.0928 -2.09359 0.049164 -0.576509 -2.0894 0.141296 -23.1245 -2.01154 -0.582579 -3.11189 -2.01155 -0.582586 80.8045 -47.6061 -115.65 34.9141 -3.97187 46.0547 -7.6519 -11.4031 -40.6438 -0.922301 -0.206643 0.544947 -93.5552 -32.4995 67.6573 -12.2394 -3.52397 -8.9323 13.3886 -6.46647 -106.865 12.716 1.2104 5.33777 0.634415 -0.716691 -7.36752 4.9711 0.775129 4.02017 
-99.4714 97.3649 -87.9686 102.9 -39.2818 107.538 -171.029 12.6285 93.9626 -15.8739 9.90874 -1.28357 51.1538 -2.10653 6.99512 36.9355 8.19606 -19.67 170.164 42.7536 99.576 -69.7859 9.53986 0.880314 60.7546 -2.61947 -1.49908 45.4171 2.22885 14.2409 -1.14235 7.97862 -90.2074 10.9146 -2.37025 -0.190376 -0.754183 -2.37634 -0.0858217 -23.3046 -2.20339 -0.894272 -3.29195 -2.20341 -0.894281 79.3331 -48.3269 -117.564 33.5264 -4.06434 48.0429 -7.15305 -13.1283 -37.1754 -0.765886 -0.20839 1.90468 -93.4654 -33.116 68.0685 -7.54316 -8.02136 -12.4764 12.3717 -6.04825 -110.277 16.9091 1.85818 7.09644 0.620711 -1.25406 -8.12955 4.06934 0.334719 4.25673 
-94.9768 92.4675 -82.5589 104.038 -37.6206 106.054 -170.855 18.4846 91.1965 -38.8423 8.94835 -1.11358 61.0295 9.58119 18.1062 41.0223 10.5307 -30.5262 174.684 38.484 95.1184 -52.9865 11.3168 1.44895 64.7553 -3.34639 -1.85862 48.1696 2.60606 13.0389 -1.14993 8.18972 -89.8431 10.5046 -2.21837 0.511794 -1.16452 -2.19372 0.608975 -23.7153 -2.26958 -0.178932 -3.70266 -2.2696 -0.178932 78.472 -50.5805 -117.904 31.0076 -5.05833 44.2452 -6.13792 -16.9465 -31.4826 0.692834 -0.155875 2.63812 -94.029 -34.4604 67.5951 -5.18536 -12.2524 -15.8549 12.4508 -5.12235 -110.096 17.107 1.74442 6.29546 5.13952 -2.99159 -9.86749 0.243097 -0.884808 3.70634 
-90.0915 90.0259 -76.7859 104.675 -39.5836 105.286 -168.883 20.1298 91.6515 -51.3821 10.1876 -1.57148 60.365 11.3214 21.6598 60.6132 23.7048 -28.641 178.063 31.5615 93.4585 -31.0736 12.5715 2.34307 66.4925 -2.8907 -1.56785 48.2862 3.35041 19.3987 -0.785259 8.02065 -89.6786 10.8376 -1.41504 0.771443 -0.832867 -1.37971 0.832964 -23.3738 -1.58145 0.310414 -3.36113 -1.58145 0.310408 81.4137 -49.3922 -114.027 33.1057 -5.87452 37.9184 -6.45584 -18.7935 -29.93 -2.81027 -0.411471 7.71252 -96.0074 -36.1806 64.8671 -8.74537 -12.0973 -12.4445 12.883 -4.20988 -105.736 15.8117 1.46925 5.35381 2.67108 -3.95386 -9.6777 1.99076 -2.10589 2.94538 
-84.8607 89.5773 -71.3293 105.328 -42.1129 103.553 -166.531 13.3117 90.0749 -49.8786 5.69826 -2.46566 64.3502 17.7649 25.3702 61.7896 26.0344 -24.0495 178.835 25.04 92.1732 -15.1254 22.1046 2.8388 67.1425 -2.84867 -1.56415 51.6473 3.68332 16.1182 -0.590061 7.86813 -89.4837 11.1419 -0.934663 1.11641 -0.529219 -0.884624 1.15645 -23.065 -1.22698 0.783904 -3.05237 -1.22698 0.783897 82.3408 -47.5645 -113.32 35.5035 -8.07387 35.1509 -8.71127 -21.5301 -34.1929 -1.46985 -0.325445 4.31485 -96.0173 -38.4093 65.7561 -11.3653 -7.16411 -8.91892 15.2537 -4.18855 -100.804 16.5769 1.74251 6.58727 4.38396 -4.10676 -8.12794 0.0226222 -2.4523 2.60294 
-79.5565 89.9267 -65.4035 103.394 -43.6727 100.282 -168.376 8.07302 88.486 -47.7745 4.02687 -1.66539 63.3569 16.7101 25.1767 64.7529 29.8968 -19.594 178.038 23.277 91.5408 -12.6068 34.4241 4.35432 68.8569 -3.20431 -1.77317 52.2652 3.51362 14.1691 -0.626425 7.55282 -89.4443 11.7746 -0.984516 1.21573 0.103439 -0.930068 1.25787 -22.4323 -1.30438 0.863646 -2.41963 -1.30439 0.863641 83.5698 -47.4493 -111.473 34.4017 -10.0362 31.6218 -10.0205 -19.6632 -38.7238 -1.67115 -0.337957 2.99677 -96.9133 -40.1379 64.9716 -13.9407 -3.30887 -4.44572 15.4027 -4.12778 -91.2824 15.736 1.57627 6.00324 5.16444 -3.84582 -5.51395 -1.38845 -2.66497 2.1851 
-74.5005 90.0627 -59.3118 103.967 -46.8448 100.267 -166.135 3.85083 90.7431 -48.9571 5.19194 -2.78501 62.8404 12.9025 20.1784 65.5325 33.0532 -13.5968 178.01 21.6405 92.9411 -15.7052 29.7173 4.30113 69.0182 -3.41862 -1.88878 52.5034 3.39525 12.9565 -0.496784 7.4307 -89.5812 12.0139 -0.790133 0.919852 0.34288 -0.74887 0.953729 -22.1927 -1.03003 0.639871 -2.18009 -1.03004 0.639862 84.4351 -46.8374 -110.349 33.5118 -11.5224 27.2037 -9.79067 -19.1668 -40.3935 -7.00417 -0.673401 4.62781 -97.9725 -40.5103 63.4081 -17.4273 -0.945092 0.659323 13.5042 -2.03773 -82.2233 14.5323 1.37653 5.49007 6.42684 -3.15118 -3.40313 -2.70653 -2.35246 2.38989 
-70.0152 90.3645 -53.5686 102.637 -46.3161 99.5582 -165.406 2.80671 93.9103 -50.9908 10.3053 -2.52145 57.6439 5.74511 14.635 69.0428 37.3599 -10.8638 177.522 23.8471 92.8565 -22.4814 20.2263 3.74741 57.5335 -0.545194 -0.172711 44.3475 2.17567 16.2465 -0.762514 7.21805 -89.8685 12.4414 -1.45252 0.429137 0.771178 -1.43223 0.492662 -21.7705 -1.51434 -0.0273456 -1.75786 -1.51433 -0.0273391 83.297 -46.7358 -112.157 32.3124 -10.8589 25.3621 -8.83349 -17.7417 -40.3816 -10.0503 -0.807918 3.77858 -98.8172 -41.598 62.511 -20.455 3.56366 2.55489 13.2432 2.27938 -67.8206 13.5374 1.16788 4.6172 7.99892 -1.99659 0.351715 -5.60807 -2.0206 1.0911 
-66.2337 90.8417 -48.9068 101.519 -45.9175 99.2642 -167.039 4.87738 95.5271 -56.4865 14.4077 -1.33938 53.1667 1.25723 12.8034 55.7299 26.4921 -8.1433 176.248 24.5068 93.2856 -29.2949 18.5642 4.77122 58.2751 -0.838728 -0.363181 34.7055 0.182347 18.3704 -0.782608 7.11744 -90.0924 12.6397 -1.59857 0.00233522 0.969756 -1.5969 0.0726999 -21.5728 -1.52535 -0.478326 -1.5601 -1.52535 -0.47832 84.1949 -47.7994 -110.385 30.4263 -11.3833 21.8995 -7.94926 -17.4129 -39.9054 -9.86467 -0.812662 4.02379 -99.5715 -41.8386 61.4229 -22.7993 8.20947 -0.774045 11.9964 11.1387 -47.7709 10.2259 1.02669 5.67429 7.50022 -2.46405 0.105841 -5.2671 -2.40466 2.76822 
-63.6381 92.1207 -44.8035 101.203 -45.6672 98.539 -168.787 7.23218 95.9722 -58.5421 12.7795 -0.172612 51.1176 -0.180269 12.9225 55.042 24.984 -10.8482 176.67 22.0721 93.7432 -30.1794 19.1709 4.03712 60.9676 -1.5051 -0.803305 28.3837 -1.08023 15.9175 -0.711295 7.17547 -90.0814 12.5238 -1.45191 0.00529311 0.853629 -1.45026 0.069188 -21.6876 -1.38637 -0.431397 -1.67494 -1.38635 -0.431405 83.7013 -48.6109 -110.859 29.5292 -11.5532 18.9882 -7.82701 -16.9383 -39.8743 -7.65988 -0.648731 3.69871 -100.713 -42.0611 59.7324 -25.3039 9.34953 -2.54445 5.61815 15.1246 -29.7718 10.216 1.1331 6.73026 7.48247 -3.09893 0.348318 -4.85589 -3.07543 2.25459 
-61.2956 93.5268 -41.3343 101.53 -46.6411 97.7375 -169.542 9.05886 95.6441 -56.8715 9.6438 0.197479 50.9554 -0.676501 11.2867 53.862 23.2776 -13.0721 177.074 18.5705 93.4577 -28.824 18.628 3.20993 62.7668 -1.69271 -0.918304 23.2544 -2.00907 14.7347 -0.487803 7.25244 -89.9316 12.3708 -0.936672 0.243543 0.700162 -0.925062 0.28453 -21.8377 -0.966564 -0.0492458 -1.8251 -0.966566 -0.0492575 84.1283 -47.9173 -110.447 30.938 -11.9199 16.2471 -8.40011 -16.5466 -40.9291 -4.70904 -0.49344 4.34358 -100.927 -41.9839 59.366 -28.8555 8.71075 0.145423 2.8693 13.9703 -22.2845 6.08451 0.763371 7.17192 6.79256 -3.52127 0.062924 -4.00449 -3.41694 2.30204 
